<?xml version="1.0" standalone="no"?><!DOCTYPE svg PUBLIC "-//W3C//DTD SVG 1.1//EN" "http://www.w3.org/Graphics/SVG/1.1/DTD/svg11.dtd"><svg t="1658383646494" class="icon" viewBox="0 0 1024 1024" version="1.1" xmlns="http://www.w3.org/2000/svg" p-id="1219" xmlns:xlink="http://www.w3.org/1999/xlink" width="200" height="200"><defs><style type="text/css">@font-face { font-family: feedback-iconfont; src: url("//at.alicdn.com/t/font_1031158_u69w8yhxdu.woff2?t=1630033759944") format("woff2"), url("//at.alicdn.com/t/font_1031158_u69w8yhxdu.woff?t=1630033759944") format("woff"), url("//at.alicdn.com/t/font_1031158_u69w8yhxdu.ttf?t=1630033759944") format("truetype"); }
</style></defs><path d="M888.746667 670.72l-3.157334 2.133333-3.669333 2.005334a47.786667 47.786667 0 0 1-8.405333 3.2l-3.84 0.853333-0.725334 0.085333-3.925333 1.28c-14.336 4.992-26.410667 12.8-34.773333 21.76l-3.84 4.650667-3.2 4.778667a75.136 75.136 0 0 0-8.490667 53.973333l1.792 7.552 0.64 1.834667c8.192 28.288-0.981333 59.946667-23.466667 78.549333l-5.077333 3.84-1.408 0.810667-12.117333 9.514666c-24.533333 18.474667-51.370667 34.730667-80.469334 48.938667l-17.706666 8.32-23.466667 10.026667a62.250667 62.250667 0 0 1-15.701333 3.413333l-3.413334 0.256L627.2 938.666667c-18.816 0-35.84-7.637333-50.090667-19.754667l-11.52-10.453333c-16.682667-14.336-33.536-21.290667-49.92-21.290667-22.016 0-41.514667 8.618667-56.234666 25.258667a85.76 85.76 0 0 1-51.925334 24.149333l-7.04 0.298667h-5.504l-5.461333-0.256-5.034667-0.725334-3.029333-0.810666h-0.512l-5.290667-1.664-17.365333-5.973334a381.354667 381.354667 0 0 1-100.992-55.466666l-12.373333-10.069334-15.829334-14.08c-22.741333-22.357333-30.336-55.552-18.645333-81.792 5.973333-16.426667 3.285333-36.608-7.381333-53.888-11.093333-18.261333-23.381333-28.458667-40.746667-33.706666l-5.888-1.536-2.645333-0.170667a76.245333 76.245333 0 0 1-58.112-53.76l-1.578667-6.229333-0.597333-3.285334-1.877334-8.277333a319.744 319.744 0 0 1-5.589333-46.165333l-0.512-12.458667L85.333333 533.845333c0-22.272 1.578667-43.136 5.12-64.853333l2.176-11.904v-6.826667l3.669334-8.192c8.32-18.944 20.266667-33.706667 36.778666-43.776l1.322667-0.725333 4.224-2.858667 3.669333-1.962666a47.786667 47.786667 0 0 1 8.277334-3.114667l4.309333-0.981333 4.096-1.237334c14.293333-4.992 26.410667-12.8 34.773333-21.76l3.84-4.650666 3.2-4.736c9.429333-16.298667 12.330667-34.133333 8.490667-54.016l-1.664-6.997334-0.853333-2.56a75.306667 75.306667 0 0 1 18.261333-73.386666l4.693333-4.266667 4.736-3.584c33.621333-27.477333 71.893333-50.474667 116.352-70.229333l16.981334-7.253334 3.072-1.109333a80.853333 80.853333 0 0 1 46.08-2.261333c11.349333 2.816 21.930667 8.277333 31.445333 16.128l11.818667 10.709333c16.725333 14.336 33.578667 21.290667 49.962666 21.290667 20.778667 0 37.546667-6.144 48.810667-17.109334l7.424-8.106666c22.442667-21.802667 51.925333-30.592 77.653333-22.613334l21.546667 7.765334a381.184 381.184 0 0 1 122.368 74.794666c26.709333 22.186667 36.266667 58.325333 23.808 86.4-5.973333 16.426667-3.328 36.608 7.338667 53.888 11.093333 18.261333 23.381333 28.458667 40.746666 33.706667l5.461334 1.408 3.114666 0.298667a76.245333 76.245333 0 0 1 58.069334 53.76l1.578666 6.272 0.426667 2.645333 1.194667 5.290667c1.834667 8.277333 3.2 16.213333 4.394666 25.386666l1.152 9.6 1.706667 17.792 1.578667 20.650667 0.128 3.285333c0 22.272-1.578667 43.136-5.12 64.853334l-2.218667 11.690666v6.997334l-3.626667 8.234666c-8.362667 18.944-20.266667 33.706667-36.821333 43.776l-1.365333 0.725334-0.725334 0.64zM512 405.290667a127.146667 127.146667 0 0 0-128 127.957333 127.146667 127.146667 0 0 0 128 127.914667c71.296 0 128-56.661333 128-127.914667a127.189333 127.189333 0 0 0-128-128z" p-id="1220" fill="#000000"></path></svg>